<svg version="1.1" xmlns="http://www.w3.org/2000/svg"
    	 viewBox="0 0 28 28">
    <g>
<rect x="0" y="0" fill="#6E1A15" width="1.05" height="1.05"/>
<rect x="1" y="0" fill="#FF0307" width="1.05" height="1.05"/>
<rect x="15" y="0" fill="#41AF46" width="1.05" height="1.05"/>
<rect x="13" y="0" fill="#41AF46" width="1.05" height="1.05"/>
<rect x="12" y="0" fill="#41AF46" width="1.05" height="1.05"/>
<rect x="2" y="0" fill="#FF0307" width="1.05" height="1.05"/>
<rect x="11" y="0" fill="#41AF46" width="1.05" height="1.05"/>
<rect x="14" y="0" fill="#41AF46" width="1.05" height="1.05"/>
<rect x="16" y="0" fill="#41AF46" width="1.05" height="1.05"/>
<rect x="7" y="7" fill="#41AF46" width="1.05" height="1.05"/>
<rect x="20" y="7" fill="#FF0307" width="1.05" height="1.05"/>
<rect x="24" y="7" fill="#FF9100" width="1.05" height="1.05"/>
<rect x="4" y="7" fill="#41AF46" width="1.05" height="1.05"/>
<rect x="15" y="7" fill="#41AF46" width="1.05" height="1.05"/>
<rect x="21" y="7" fill="#FF9100" width="1.05" height="1.05"/>
<rect x="13" y="7" fill="#FFFFFF" width="1.05" height="1.05"/>
<rect x="22" y="7" fill="#FF9100" width="1.05" height="1.05"/>
<rect x="6" y="7" fill="#41AF46" width="1.05" height="1.05"/>
<rect x="25" y="7" fill="#FF0307" width="1.05" height="1.05"/>
<rect x="17" y="7" fill="#FF0307" width="1.05" height="1.05"/>
<rect x="3" y="7" fill="#41AF46" width="1.05" height="1.05"/>
<rect x="12" y="7" fill="#C1C1C1" width="1.05" height="1.05"/>
<rect x="2" y="7" fill="#41AF46" width="1.05" height="1.05"/>
<rect x="23" y="7" fill="#FF9100" width="1.05" height="1.05"/>
<rect x="19" y="7" fill="#FF0307" width="1.05" height="1.05"/>
<rect x="11" y="7" fill="#41AF46" width="1.05" height="1.05"/>
<rect x="9" y="7" fill="#6E1A15" width="1.05" height="1.05"/>
<rect x="5" y="7" fill="#41AF46" width="1.05" height="1.05"/>
<rect x="14" y="7" fill="#41AF46" width="1.05" height="1.05"/>
<rect x="16" y="7" fill="#FF0307" width="1.05" height="1.05"/>
<rect x="10" y="7" fill="#6EC872" width="1.05" height="1.05"/>
<rect x="18" y="7" fill="#FF0307" width="1.05" height="1.05"/>
<rect x="8" y="7" fill="#6E1A15" width="1.05" height="1.05"/>
<rect x="7" y="20" fill="#41AF46" width="1.05" height="1.05"/>
<rect x="20" y="20" fill="#E8E8E8" width="1.05" height="1.05"/>
<rect x="24" y="20" fill="#D903CA" width="1.05" height="1.05"/>
<rect x="4" y="20" fill="#41AF46" width="1.05" height="1.05"/>
<rect x="15" y="20" fill="#E8E8E8" width="1.05" height="1.05"/>
<rect x="21" y="20" fill="#FFFFFF" width="1.05" height="1.05"/>
<rect x="13" y="20" fill="#C1C1C1" width="1.05" height="1.05"/>
<rect x="22" y="20" fill="#FFFFFF" width="1.05" height="1.05"/>
<rect x="6" y="20" fill="#41AF46" width="1.05" height="1.05"/>
<rect x="25" y="20" fill="#D903CA" width="1.05" height="1.05"/>
<rect x="17" y="20" fill="#E8E8E8" width="1.05" height="1.05"/>
<rect x="3" y="20" fill="#41AF46" width="1.05" height="1.05"/>
<rect x="12" y="20" fill="#C1C1C1" width="1.05" height="1.05"/>
<rect x="2" y="20" fill="#41AF46" width="1.05" height="1.05"/>
<rect x="23" y="20" fill="#D903CA" width="1.05" height="1.05"/>
<rect x="19" y="20" fill="#FFFFFF" width="1.05" height="1.05"/>
<rect x="11" y="20" fill="#41AF46" width="1.05" height="1.05"/>
<rect x="9" y="20" fill="#41AF46" width="1.05" height="1.05"/>
<rect x="5" y="20" fill="#41AF46" width="1.05" height="1.05"/>
<rect x="14" y="20" fill="#E8E8E8" width="1.05" height="1.05"/>
<rect x="16" y="20" fill="#E8E8E8" width="1.05" height="1.05"/>
<rect x="10" y="20" fill="#41AF46" width="1.05" height="1.05"/>
<rect x="18" y="20" fill="#E8E8E8" width="1.05" height="1.05"/>
<rect x="8" y="20" fill="#41AF46" width="1.05" height="1.05"/>
<rect x="15" y="27" fill="#343F35" width="1.05" height="1.05"/>
<rect x="13" y="27" fill="#343F35" width="1.05" height="1.05"/>
<rect x="12" y="27" fill="#343F35" width="1.05" height="1.05"/>
<rect x="11" y="27" fill="#343F35" width="1.05" height="1.05"/>
<rect x="14" y="27" fill="#343F35" width="1.05" height="1.05"/>
<rect x="16" y="27" fill="#343F35" width="1.05" height="1.05"/>
<rect x="4" y="1" fill="#FF0307" width="1.05" height="1.05"/>
<rect x="15" y="1" fill="#41AF46" width="1.05" height="1.05"/>
<rect x="13" y="1" fill="#41AF46" width="1.05" height="1.05"/>
<rect x="17" y="1" fill="#41AF46" width="1.05" height="1.05"/>
<rect x="3" y="1" fill="#FF0307" width="1.05" height="1.05"/>
<rect x="12" y="1" fill="#41AF46" width="1.05" height="1.05"/>
<rect x="2" y="1" fill="#6E1A15" width="1.05" height="1.05"/>
<rect x="19" y="1" fill="#41AF46" width="1.05" height="1.05"/>
<rect x="11" y="1" fill="#41AF46" width="1.05" height="1.05"/>
<rect x="9" y="1" fill="#41AF46" width="1.05" height="1.05"/>
<rect x="14" y="1" fill="#41AF46" width="1.05" height="1.05"/>
<rect x="16" y="1" fill="#41AF46" width="1.05" height="1.05"/>
<rect x="10" y="1" fill="#41AF46" width="1.05" height="1.05"/>
<rect x="18" y="1" fill="#41AF46" width="1.05" height="1.05"/>
<rect x="8" y="1" fill="#41AF46" width="1.05" height="1.05"/>
<rect x="7" y="24" fill="#41AF46" width="1.05" height="1.05"/>
<rect x="20" y="24" fill="#E8E8E8" width="1.05" height="1.05"/>
<rect x="15" y="24" fill="#E8E8E8" width="1.05" height="1.05"/>
<rect x="21" y="24" fill="#E8E8E8" width="1.05" height="1.05"/>
<rect x="13" y="24" fill="#E8E8E8" width="1.05" height="1.05"/>
<rect x="22" y="24" fill="#343F35" width="1.05" height="1.05"/>
<rect x="6" y="24" fill="#41AF46" width="1.05" height="1.05"/>
<rect x="17" y="24" fill="#E8E8E8" width="1.05" height="1.05"/>
<rect x="12" y="24" fill="#E8E8E8" width="1.05" height="1.05"/>
<rect x="19" y="24" fill="#E8E8E8" width="1.05" height="1.05"/>
<rect x="11" y="24" fill="#C1C1C1" width="1.05" height="1.05"/>
<rect x="9" y="24" fill="#41AF46" width="1.05" height="1.05"/>
<rect x="5" y="24" fill="#343F35" width="1.05" height="1.05"/>
<rect x="14" y="24" fill="#C1C1C1" width="1.05" height="1.05"/>
<rect x="16" y="24" fill="#E8E8E8" width="1.05" height="1.05"/>
<rect x="10" y="24" fill="#C1C1C1" width="1.05" height="1.05"/>
<rect x="18" y="24" fill="#E8E8E8" width="1.05" height="1.05"/>
<rect x="8" y="24" fill="#41AF46" width="1.05" height="1.05"/>
<rect x="7" y="4" fill="#FF0307" width="1.05" height="1.05"/>
<rect x="20" y="4" fill="#41AF46" width="1.05" height="1.05"/>
<rect x="4" y="4" fill="#41AF46" width="1.05" height="1.05"/>
<rect x="15" y="4" fill="#41AF46" width="1.05" height="1.05"/>
<rect x="21" y="4" fill="#41AF46" width="1.05" height="1.05"/>
<rect x="13" y="4" fill="#41AF46" width="1.05" height="1.05"/>
<rect x="22" y="4" fill="#41AF46" width="1.05" height="1.05"/>
<rect x="6" y="4" fill="#FF0307" width="1.05" height="1.05"/>
<rect x="17" y="4" fill="#41AF46" width="1.05" height="1.05"/>
<rect x="12" y="4" fill="#41AF46" width="1.05" height="1.05"/>
<rect x="23" y="4" fill="#41AF46" width="1.05" height="1.05"/>
<rect x="19" y="4" fill="#41AF46" width="1.05" height="1.05"/>
<rect x="11" y="4" fill="#41AF46" width="1.05" height="1.05"/>
<rect x="9" y="4" fill="#FF0307" width="1.05" height="1.05"/>
<rect x="5" y="4" fill="#41AF46" width="1.05" height="1.05"/>
<rect x="14" y="4" fill="#41AF46" width="1.05" height="1.05"/>
<rect x="16" y="4" fill="#41AF46" width="1.05" height="1.05"/>
<rect x="10" y="4" fill="#41AF46" width="1.05" height="1.05"/>
<rect x="18" y="4" fill="#41AF46" width="1.05" height="1.05"/>
<rect x="8" y="4" fill="#FF0307" width="1.05" height="1.05"/>
<rect x="0" y="15" fill="#41AF46" width="1.05" height="1.05"/>
<rect x="7" y="15" fill="#E8E8E8" width="1.05" height="1.05"/>
<rect x="20" y="15" fill="#FFFFFF" width="1.05" height="1.05"/>
<rect x="27" y="15" fill="#41AF46" width="1.05" height="1.05"/>
<rect x="1" y="15" fill="#41AF46" width="1.05" height="1.05"/>
<rect x="24" y="15" fill="#41AF46" width="1.05" height="1.05"/>
<rect x="4" y="15" fill="#C1C1C1" width="1.05" height="1.05"/>
<rect x="15" y="15" fill="#343F35" width="1.05" height="1.05"/>
<rect x="21" y="15" fill="#FFFFFF" width="1.05" height="1.05"/>
<rect x="13" y="15" fill="#FFFFFF" width="1.05" height="1.05"/>
<rect x="22" y="15" fill="#FFFFFF" width="1.05" height="1.05"/>
<rect x="6" y="15" fill="#E8E8E8" width="1.05" height="1.05"/>
<rect x="25" y="15" fill="#41AF46" width="1.05" height="1.05"/>
<rect x="17" y="15" fill="#E8E8E8" width="1.05" height="1.05"/>
<rect x="3" y="15" fill="#41AF46" width="1.05" height="1.05"/>
<rect x="12" y="15" fill="#E8E8E8" width="1.05" height="1.05"/>
<rect x="2" y="15" fill="#41AF46" width="1.05" height="1.05"/>
<rect x="23" y="15" fill="#41AF46" width="1.05" height="1.05"/>
<rect x="19" y="15" fill="#E8E8E8" width="1.05" height="1.05"/>
<rect x="11" y="15" fill="#E8E8E8" width="1.05" height="1.05"/>
<rect x="9" y="15" fill="#C1C1C1" width="1.05" height="1.05"/>
<rect x="5" y="15" fill="#E8E8E8" width="1.05" height="1.05"/>
<rect x="14" y="15" fill="#FFFFFF" width="1.05" height="1.05"/>
<rect x="26" y="15" fill="#41AF46" width="1.05" height="1.05"/>
<rect x="16" y="15" fill="#C1C1C1" width="1.05" height="1.05"/>
<rect x="10" y="15" fill="#E8E8E8" width="1.05" height="1.05"/>
<rect x="18" y="15" fill="#E8E8E8" width="1.05" height="1.05"/>
<rect x="8" y="15" fill="#E8E8E8" width="1.05" height="1.05"/>
<rect x="7" y="21" fill="#41AF46" width="1.05" height="1.05"/>
<rect x="20" y="21" fill="#E8E8E8" width="1.05" height="1.05"/>
<rect x="24" y="21" fill="#D903CA" width="1.05" height="1.05"/>
<rect x="4" y="21" fill="#41AF46" width="1.05" height="1.05"/>
<rect x="15" y="21" fill="#C1C1C1" width="1.05" height="1.05"/>
<rect x="21" y="21" fill="#E8E8E8" width="1.05" height="1.05"/>
<rect x="13" y="21" fill="#E8E8E8" width="1.05" height="1.05"/>
<rect x="22" y="21" fill="#FFFFFF" width="1.05" height="1.05"/>
<rect x="6" y="21" fill="#41AF46" width="1.05" height="1.05"/>
<rect x="25" y="21" fill="#343F35" width="1.05" height="1.05"/>
<rect x="17" y="21" fill="#E8E8E8" width="1.05" height="1.05"/>
<rect x="3" y="21" fill="#41AF46" width="1.05" height="1.05"/>
<rect x="12" y="21" fill="#C1C1C1" width="1.05" height="1.05"/>
<rect x="2" y="21" fill="#343F35" width="1.05" height="1.05"/>
<rect x="23" y="21" fill="#FFFFFF" width="1.05" height="1.05"/>
<rect x="19" y="21" fill="#E8E8E8" width="1.05" height="1.05"/>
<rect x="11" y="21" fill="#41AF46" width="1.05" height="1.05"/>
<rect x="9" y="21" fill="#41AF46" width="1.05" height="1.05"/>
<rect x="5" y="21" fill="#41AF46" width="1.05" height="1.05"/>
<rect x="14" y="21" fill="#E8E8E8" width="1.05" height="1.05"/>
<rect x="16" y="21" fill="#E8E8E8" width="1.05" height="1.05"/>
<rect x="10" y="21" fill="#41AF46" width="1.05" height="1.05"/>
<rect x="18" y="21" fill="#E8E8E8" width="1.05" height="1.05"/>
<rect x="8" y="21" fill="#41AF46" width="1.05" height="1.05"/>
<rect x="0" y="13" fill="#41AF46" width="1.05" height="1.05"/>
<rect x="7" y="13" fill="#E8E8E8" width="1.05" height="1.05"/>
<rect x="20" y="13" fill="#FFFFFF" width="1.05" height="1.05"/>
<rect x="27" y="13" fill="#41AF46" width="1.05" height="1.05"/>
<rect x="1" y="13" fill="#41AF46" width="1.05" height="1.05"/>
<rect x="24" y="13" fill="#41AF46" width="1.05" height="1.05"/>
<rect x="4" y="13" fill="#41AF46" width="1.05" height="1.05"/>
<rect x="15" y="13" fill="#C1C1C1" width="1.05" height="1.05"/>
<rect x="21" y="13" fill="#FFFFFF" width="1.05" height="1.05"/>
<rect x="13" y="13" fill="#E8E8E8" width="1.05" height="1.05"/>
<rect x="22" y="13" fill="#41AF46" width="1.05" height="1.05"/>
<rect x="6" y="13" fill="#C1C1C1" width="1.05" height="1.05"/>
<rect x="25" y="13" fill="#41AF46" width="1.05" height="1.05"/>
<rect x="17" y="13" fill="#E8E8E8" width="1.05" height="1.05"/>
<rect x="3" y="13" fill="#41AF46" width="1.05" height="1.05"/>
<rect x="12" y="13" fill="#E8E8E8" width="1.05" height="1.05"/>
<rect x="2" y="13" fill="#41AF46" width="1.05" height="1.05"/>
<rect x="23" y="13" fill="#41AF46" width="1.05" height="1.05"/>
<rect x="19" y="13" fill="#FFFFFF" width="1.05" height="1.05"/>
<rect x="11" y="13" fill="#E8E8E8" width="1.05" height="1.05"/>
<rect x="9" y="13" fill="#E8E8E8" width="1.05" height="1.05"/>
<rect x="5" y="13" fill="#41AF46" width="1.05" height="1.05"/>
<rect x="14" y="13" fill="#FFFFFF" width="1.05" height="1.05"/>
<rect x="26" y="13" fill="#41AF46" width="1.05" height="1.05"/>
<rect x="16" y="13" fill="#E8E8E8" width="1.05" height="1.05"/>
<rect x="10" y="13" fill="#C1C1C1" width="1.05" height="1.05"/>
<rect x="18" y="13" fill="#E8E8E8" width="1.05" height="1.05"/>
<rect x="8" y="13" fill="#E8E8E8" width="1.05" height="1.05"/>
<rect x="7" y="22" fill="#41AF46" width="1.05" height="1.05"/>
<rect x="20" y="22" fill="#E8E8E8" width="1.05" height="1.05"/>
<rect x="24" y="22" fill="#343F35" width="1.05" height="1.05"/>
<rect x="4" y="22" fill="#41AF46" width="1.05" height="1.05"/>
<rect x="15" y="22" fill="#C1C1C1" width="1.05" height="1.05"/>
<rect x="21" y="22" fill="#FFFFFF" width="1.05" height="1.05"/>
<rect x="13" y="22" fill="#E8E8E8" width="1.05" height="1.05"/>
<rect x="22" y="22" fill="#FFFFFF" width="1.05" height="1.05"/>
<rect x="6" y="22" fill="#41AF46" width="1.05" height="1.05"/>
<rect x="17" y="22" fill="#E8E8E8" width="1.05" height="1.05"/>
<rect x="3" y="22" fill="#343F35" width="1.05" height="1.05"/>
<rect x="12" y="22" fill="#C1C1C1" width="1.05" height="1.05"/>
<rect x="23" y="22" fill="#FFFFFF" width="1.05" height="1.05"/>
<rect x="19" y="22" fill="#FFFFFF" width="1.05" height="1.05"/>
<rect x="11" y="22" fill="#41AF46" width="1.05" height="1.05"/>
<rect x="9" y="22" fill="#41AF46" width="1.05" height="1.05"/>
<rect x="5" y="22" fill="#41AF46" width="1.05" height="1.05"/>
<rect x="14" y="22" fill="#E8E8E8" width="1.05" height="1.05"/>
<rect x="16" y="22" fill="#E8E8E8" width="1.05" height="1.05"/>
<rect x="10" y="22" fill="#41AF46" width="1.05" height="1.05"/>
<rect x="18" y="22" fill="#E8E8E8" width="1.05" height="1.05"/>
<rect x="8" y="22" fill="#41AF46" width="1.05" height="1.05"/>
<rect x="7" y="6" fill="#6E1A15" width="1.05" height="1.05"/>
<rect x="20" y="6" fill="#FF0307" width="1.05" height="1.05"/>
<rect x="24" y="6" fill="#FF0307" width="1.05" height="1.05"/>
<rect x="4" y="6" fill="#41AF46" width="1.05" height="1.05"/>
<rect x="15" y="6" fill="#41AF46" width="1.05" height="1.05"/>
<rect x="21" y="6" fill="#FF0307" width="1.05" height="1.05"/>
<rect x="13" y="6" fill="#FFFFFF" width="1.05" height="1.05"/>
<rect x="22" y="6" fill="#FF0307" width="1.05" height="1.05"/>
<rect x="6" y="6" fill="#41AF46" width="1.05" height="1.05"/>
<rect x="25" y="6" fill="#FF0307" width="1.05" height="1.05"/>
<rect x="17" y="6" fill="#FF0307" width="1.05" height="1.05"/>
<rect x="3" y="6" fill="#41AF46" width="1.05" height="1.05"/>
<rect x="12" y="6" fill="#C1C1C1" width="1.05" height="1.05"/>
<rect x="2" y="6" fill="#41AF46" width="1.05" height="1.05"/>
<rect x="23" y="6" fill="#FF0307" width="1.05" height="1.05"/>
<rect x="19" y="6" fill="#FF0307" width="1.05" height="1.05"/>
<rect x="11" y="6" fill="#41AF46" width="1.05" height="1.05"/>
<rect x="9" y="6" fill="#FF9100" width="1.05" height="1.05"/>
<rect x="5" y="6" fill="#41AF46" width="1.05" height="1.05"/>
<rect x="14" y="6" fill="#41AF46" width="1.05" height="1.05"/>
<rect x="16" y="6" fill="#41AF46" width="1.05" height="1.05"/>
<rect x="10" y="6" fill="#FF0307" width="1.05" height="1.05"/>
<rect x="18" y="6" fill="#FF0307" width="1.05" height="1.05"/>
<rect x="8" y="6" fill="#FF0307" width="1.05" height="1.05"/>
<rect x="7" y="25" fill="#343F35" width="1.05" height="1.05"/>
<rect x="20" y="25" fill="#343F35" width="1.05" height="1.05"/>
<rect x="15" y="25" fill="#E8E8E8" width="1.05" height="1.05"/>
<rect x="21" y="25" fill="#343F35" width="1.05" height="1.05"/>
<rect x="13" y="25" fill="#E8E8E8" width="1.05" height="1.05"/>
<rect x="6" y="25" fill="#343F35" width="1.05" height="1.05"/>
<rect x="17" y="25" fill="#C1C1C1" width="1.05" height="1.05"/>
<rect x="12" y="25" fill="#E8E8E8" width="1.05" height="1.05"/>
<rect x="19" y="25" fill="#E8E8E8" width="1.05" height="1.05"/>
<rect x="11" y="25" fill="#C1C1C1" width="1.05" height="1.05"/>
<rect x="9" y="25" fill="#41AF46" width="1.05" height="1.05"/>
<rect x="14" y="25" fill="#C1C1C1" width="1.05" height="1.05"/>
<rect x="16" y="25" fill="#E8E8E8" width="1.05" height="1.05"/>
<rect x="10" y="25" fill="#C1C1C1" width="1.05" height="1.05"/>
<rect x="18" y="25" fill="#E8E8E8" width="1.05" height="1.05"/>
<rect x="8" y="25" fill="#41AF46" width="1.05" height="1.05"/>
<rect x="7" y="17" fill="#E8E8E8" width="1.05" height="1.05"/>
<rect x="20" y="17" fill="#E8E8E8" width="1.05" height="1.05"/>
<rect x="1" y="17" fill="#41AF46" width="1.05" height="1.05"/>
<rect x="24" y="17" fill="#0068FD" width="1.05" height="1.05"/>
<rect x="4" y="17" fill="#343F35" width="1.05" height="1.05"/>
<rect x="15" y="17" fill="#C1C1C1" width="1.05" height="1.05"/>
<rect x="21" y="17" fill="#FFFFFF" width="1.05" height="1.05"/>
<rect x="13" y="17" fill="#343F35" width="1.05" height="1.05"/>
<rect x="22" y="17" fill="#FFFFFF" width="1.05" height="1.05"/>
<rect x="6" y="17" fill="#E8E8E8" width="1.05" height="1.05"/>
<rect x="25" y="17" fill="#0068FD" width="1.05" height="1.05"/>
<rect x="17" y="17" fill="#E8E8E8" width="1.05" height="1.05"/>
<rect x="3" y="17" fill="#41AF46" width="1.05" height="1.05"/>
<rect x="12" y="17" fill="#343F35" width="1.05" height="1.05"/>
<rect x="2" y="17" fill="#41AF46" width="1.05" height="1.05"/>
<rect x="23" y="17" fill="#0068FD" width="1.05" height="1.05"/>
<rect x="19" y="17" fill="#E8E8E8" width="1.05" height="1.05"/>
<rect x="11" y="17" fill="#343F35" width="1.05" height="1.05"/>
<rect x="9" y="17" fill="#C1C1C1" width="1.05" height="1.05"/>
<rect x="5" y="17" fill="#E8E8E8" width="1.05" height="1.05"/>
<rect x="14" y="17" fill="#C1C1C1" width="1.05" height="1.05"/>
<rect x="26" y="17" fill="#0068FD" width="1.05" height="1.05"/>
<rect x="16" y="17" fill="#E8E8E8" width="1.05" height="1.05"/>
<rect x="10" y="17" fill="#C1C1C1" width="1.05" height="1.05"/>
<rect x="18" y="17" fill="#FFFFFF" width="1.05" height="1.05"/>
<rect x="8" y="17" fill="#C1C1C1" width="1.05" height="1.05"/>
<rect x="7" y="3" fill="#FF0307" width="1.05" height="1.05"/>
<rect x="20" y="3" fill="#41AF46" width="1.05" height="1.05"/>
<rect x="15" y="3" fill="#41AF46" width="1.05" height="1.05"/>
<rect x="21" y="3" fill="#41AF46" width="1.05" height="1.05"/>
<rect x="13" y="3" fill="#41AF46" width="1.05" height="1.05"/>
<rect x="22" y="3" fill="#41AF46" width="1.05" height="1.05"/>
<rect x="6" y="3" fill="#FF0307" width="1.05" height="1.05"/>
<rect x="17" y="3" fill="#41AF46" width="1.05" height="1.05"/>
<rect x="12" y="3" fill="#41AF46" width="1.05" height="1.05"/>
<rect x="19" y="3" fill="#41AF46" width="1.05" height="1.05"/>
<rect x="11" y="3" fill="#41AF46" width="1.05" height="1.05"/>
<rect x="9" y="3" fill="#41AF46" width="1.05" height="1.05"/>
<rect x="5" y="3" fill="#FF0307" width="1.05" height="1.05"/>
<rect x="14" y="3" fill="#41AF46" width="1.05" height="1.05"/>
<rect x="16" y="3" fill="#41AF46" width="1.05" height="1.05"/>
<rect x="10" y="3" fill="#41AF46" width="1.05" height="1.05"/>
<rect x="18" y="3" fill="#41AF46" width="1.05" height="1.05"/>
<rect x="8" y="3" fill="#FF0307" width="1.05" height="1.05"/>
<rect x="0" y="12" fill="#41AF46" width="1.05" height="1.05"/>
<rect x="7" y="12" fill="#C1C1C1" width="1.05" height="1.05"/>
<rect x="20" y="12" fill="#FFFFFF" width="1.05" height="1.05"/>
<rect x="27" y="12" fill="#FFF700" width="1.05" height="1.05"/>
<rect x="1" y="12" fill="#41AF46" width="1.05" height="1.05"/>
<rect x="24" y="12" fill="#41AF46" width="1.05" height="1.05"/>
<rect x="4" y="12" fill="#41AF46" width="1.05" height="1.05"/>
<rect x="15" y="12" fill="#C1C1C1" width="1.05" height="1.05"/>
<rect x="21" y="12" fill="#FFFFFF" width="1.05" height="1.05"/>
<rect x="13" y="12" fill="#E8E8E8" width="1.05" height="1.05"/>
<rect x="22" y="12" fill="#FFF700" width="1.05" height="1.05"/>
<rect x="6" y="12" fill="#41AF46" width="1.05" height="1.05"/>
<rect x="25" y="12" fill="#41AF46" width="1.05" height="1.05"/>
<rect x="17" y="12" fill="#E8E8E8" width="1.05" height="1.05"/>
<rect x="3" y="12" fill="#41AF46" width="1.05" height="1.05"/>
<rect x="12" y="12" fill="#E8E8E8" width="1.05" height="1.05"/>
<rect x="2" y="12" fill="#41AF46" width="1.05" height="1.05"/>
<rect x="23" y="12" fill="#41AF46" width="1.05" height="1.05"/>
<rect x="19" y="12" fill="#FFFFFF" width="1.05" height="1.05"/>
<rect x="11" y="12" fill="#C1C1C1" width="1.05" height="1.05"/>
<rect x="9" y="12" fill="#C1C1C1" width="1.05" height="1.05"/>
<rect x="5" y="12" fill="#41AF46" width="1.05" height="1.05"/>
<rect x="14" y="12" fill="#FFFFFF" width="1.05" height="1.05"/>
<rect x="26" y="12" fill="#FFF700" width="1.05" height="1.05"/>
<rect x="16" y="12" fill="#E8E8E8" width="1.05" height="1.05"/>
<rect x="10" y="12" fill="#E8E8E8" width="1.05" height="1.05"/>
<rect x="18" y="12" fill="#E8E8E8" width="1.05" height="1.05"/>
<rect x="8" y="12" fill="#E8E8E8" width="1.05" height="1.05"/>
<rect x="7" y="2" fill="#41AF46" width="1.05" height="1.05"/>
<rect x="20" y="2" fill="#41AF46" width="1.05" height="1.05"/>
<rect x="4" y="2" fill="#FF0307" width="1.05" height="1.05"/>
<rect x="15" y="2" fill="#41AF46" width="1.05" height="1.05"/>
<rect x="21" y="2" fill="#41AF46" width="1.05" height="1.05"/>
<rect x="13" y="2" fill="#41AF46" width="1.05" height="1.05"/>
<rect x="6" y="2" fill="#FF0307" width="1.05" height="1.05"/>
<rect x="17" y="2" fill="#41AF46" width="1.05" height="1.05"/>
<rect x="3" y="2" fill="#6E1A15" width="1.05" height="1.05"/>
<rect x="12" y="2" fill="#41AF46" width="1.05" height="1.05"/>
<rect x="19" y="2" fill="#41AF46" width="1.05" height="1.05"/>
<rect x="11" y="2" fill="#41AF46" width="1.05" height="1.05"/>
<rect x="9" y="2" fill="#41AF46" width="1.05" height="1.05"/>
<rect x="5" y="2" fill="#FF0307" width="1.05" height="1.05"/>
<rect x="14" y="2" fill="#41AF46" width="1.05" height="1.05"/>
<rect x="16" y="2" fill="#41AF46" width="1.05" height="1.05"/>
<rect x="10" y="2" fill="#41AF46" width="1.05" height="1.05"/>
<rect x="18" y="2" fill="#41AF46" width="1.05" height="1.05"/>
<rect x="8" y="2" fill="#41AF46" width="1.05" height="1.05"/>
<rect x="7" y="23" fill="#41AF46" width="1.05" height="1.05"/>
<rect x="20" y="23" fill="#E8E8E8" width="1.05" height="1.05"/>
<rect x="4" y="23" fill="#343F35" width="1.05" height="1.05"/>
<rect x="15" y="23" fill="#C1C1C1" width="1.05" height="1.05"/>
<rect x="21" y="23" fill="#FFFFFF" width="1.05" height="1.05"/>
<rect x="13" y="23" fill="#E8E8E8" width="1.05" height="1.05"/>
<rect x="22" y="23" fill="#E8E8E8" width="1.05" height="1.05"/>
<rect x="6" y="23" fill="#41AF46" width="1.05" height="1.05"/>
<rect x="17" y="23" fill="#E8E8E8" width="1.05" height="1.05"/>
<rect x="12" y="23" fill="#C1C1C1" width="1.05" height="1.05"/>
<rect x="23" y="23" fill="#343F35" width="1.05" height="1.05"/>
<rect x="19" y="23" fill="#E8E8E8" width="1.05" height="1.05"/>
<rect x="11" y="23" fill="#C1C1C1" width="1.05" height="1.05"/>
<rect x="9" y="23" fill="#41AF46" width="1.05" height="1.05"/>
<rect x="5" y="23" fill="#41AF46" width="1.05" height="1.05"/>
<rect x="14" y="23" fill="#E8E8E8" width="1.05" height="1.05"/>
<rect x="16" y="23" fill="#E8E8E8" width="1.05" height="1.05"/>
<rect x="10" y="23" fill="#41AF46" width="1.05" height="1.05"/>
<rect x="18" y="23" fill="#E8E8E8" width="1.05" height="1.05"/>
<rect x="8" y="23" fill="#41AF46" width="1.05" height="1.05"/>
<rect x="7" y="19" fill="#343F35" width="1.05" height="1.05"/>
<rect x="20" y="19" fill="#E8E8E8" width="1.05" height="1.05"/>
<rect x="1" y="19" fill="#343F35" width="1.05" height="1.05"/>
<rect x="24" y="19" fill="#D903CA" width="1.05" height="1.05"/>
<rect x="4" y="19" fill="#41AF46" width="1.05" height="1.05"/>
<rect x="15" y="19" fill="#E8E8E8" width="1.05" height="1.05"/>
<rect x="21" y="19" fill="#FFFFFF" width="1.05" height="1.05"/>
<rect x="13" y="19" fill="#C1C1C1" width="1.05" height="1.05"/>
<rect x="22" y="19" fill="#FFFFFF" width="1.05" height="1.05"/>
<rect x="6" y="19" fill="#343F35" width="1.05" height="1.05"/>
<rect x="25" y="19" fill="#D903CA" width="1.05" height="1.05"/>
<rect x="17" y="19" fill="#E8E8E8" width="1.05" height="1.05"/>
<rect x="3" y="19" fill="#41AF46" width="1.05" height="1.05"/>
<rect x="12" y="19" fill="#41AF46" width="1.05" height="1.05"/>
<rect x="2" y="19" fill="#41AF46" width="1.05" height="1.05"/>
<rect x="23" y="19" fill="#0068FD" width="1.05" height="1.05"/>
<rect x="19" y="19" fill="#FFFFFF" width="1.05" height="1.05"/>
<rect x="11" y="19" fill="#41AF46" width="1.05" height="1.05"/>
<rect x="9" y="19" fill="#41AF46" width="1.05" height="1.05"/>
<rect x="5" y="19" fill="#41AF46" width="1.05" height="1.05"/>
<rect x="14" y="19" fill="#C1C1C1" width="1.05" height="1.05"/>
<rect x="26" y="19" fill="#343F35" width="1.05" height="1.05"/>
<rect x="16" y="19" fill="#E8E8E8" width="1.05" height="1.05"/>
<rect x="10" y="19" fill="#41AF46" width="1.05" height="1.05"/>
<rect x="18" y="19" fill="#E8E8E8" width="1.05" height="1.05"/>
<rect x="8" y="19" fill="#343F35" width="1.05" height="1.05"/>
<rect x="0" y="11" fill="#41AF46" width="1.05" height="1.05"/>
<rect x="7" y="11" fill="#C1C1C1" width="1.05" height="1.05"/>
<rect x="20" y="11" fill="#FFFFFF" width="1.05" height="1.05"/>
<rect x="27" y="11" fill="#FFF700" width="1.05" height="1.05"/>
<rect x="1" y="11" fill="#41AF46" width="1.05" height="1.05"/>
<rect x="24" y="11" fill="#FFF700" width="1.05" height="1.05"/>
<rect x="4" y="11" fill="#41AF46" width="1.05" height="1.05"/>
<rect x="15" y="11" fill="#E8E8E8" width="1.05" height="1.05"/>
<rect x="21" y="11" fill="#FFF700" width="1.05" height="1.05"/>
<rect x="13" y="11" fill="#E8E8E8" width="1.05" height="1.05"/>
<rect x="22" y="11" fill="#FFF700" width="1.05" height="1.05"/>
<rect x="6" y="11" fill="#41AF46" width="1.05" height="1.05"/>
<rect x="25" y="11" fill="#FFF700" width="1.05" height="1.05"/>
<rect x="17" y="11" fill="#E8E8E8" width="1.05" height="1.05"/>
<rect x="3" y="11" fill="#41AF46" width="1.05" height="1.05"/>
<rect x="12" y="11" fill="#E8E8E8" width="1.05" height="1.05"/>
<rect x="2" y="11" fill="#41AF46" width="1.05" height="1.05"/>
<rect x="23" y="11" fill="#FFF700" width="1.05" height="1.05"/>
<rect x="19" y="11" fill="#FFFFFF" width="1.05" height="1.05"/>
<rect x="11" y="11" fill="#E8E8E8" width="1.05" height="1.05"/>
<rect x="9" y="11" fill="#343F35" width="1.05" height="1.05"/>
<rect x="5" y="11" fill="#41AF46" width="1.05" height="1.05"/>
<rect x="14" y="11" fill="#C1C1C1" width="1.05" height="1.05"/>
<rect x="26" y="11" fill="#FFF700" width="1.05" height="1.05"/>
<rect x="16" y="11" fill="#E8E8E8" width="1.05" height="1.05"/>
<rect x="10" y="11" fill="#343F35" width="1.05" height="1.05"/>
<rect x="18" y="11" fill="#FFFFFF" width="1.05" height="1.05"/>
<rect x="8" y="11" fill="#E8E8E8" width="1.05" height="1.05"/>
<rect x="7" y="9" fill="#41AF46" width="1.05" height="1.05"/>
<rect x="20" y="9" fill="#FF9100" width="1.05" height="1.05"/>
<rect x="1" y="9" fill="#41AF46" width="1.05" height="1.05"/>
<rect x="24" y="9" fill="#FFF700" width="1.05" height="1.05"/>
<rect x="4" y="9" fill="#41AF46" width="1.05" height="1.05"/>
<rect x="15" y="9" fill="#FFFFFF" width="1.05" height="1.05"/>
<rect x="21" y="9" fill="#FF9100" width="1.05" height="1.05"/>
<rect x="13" y="9" fill="#FFFFFF" width="1.05" height="1.05"/>
<rect x="22" y="9" fill="#FFF700" width="1.05" height="1.05"/>
<rect x="6" y="9" fill="#41AF46" width="1.05" height="1.05"/>
<rect x="25" y="9" fill="#FFF700" width="1.05" height="1.05"/>
<rect x="17" y="9" fill="#FFFFFF" width="1.05" height="1.05"/>
<rect x="3" y="9" fill="#41AF46" width="1.05" height="1.05"/>
<rect x="12" y="9" fill="#E8E8E8" width="1.05" height="1.05"/>
<rect x="2" y="9" fill="#41AF46" width="1.05" height="1.05"/>
<rect x="23" y="9" fill="#FFF700" width="1.05" height="1.05"/>
<rect x="19" y="9" fill="#FF9100" width="1.05" height="1.05"/>
<rect x="11" y="9" fill="#E8E8E8" width="1.05" height="1.05"/>
<rect x="9" y="9" fill="#C1C1C1" width="1.05" height="1.05"/>
<rect x="5" y="9" fill="#41AF46" width="1.05" height="1.05"/>
<rect x="14" y="9" fill="#E8E8E8" width="1.05" height="1.05"/>
<rect x="26" y="9" fill="#FF9100" width="1.05" height="1.05"/>
<rect x="16" y="9" fill="#FFFFFF" width="1.05" height="1.05"/>
<rect x="10" y="9" fill="#C1C1C1" width="1.05" height="1.05"/>
<rect x="18" y="9" fill="#FFFFFF" width="1.05" height="1.05"/>
<rect x="8" y="9" fill="#41AF46" width="1.05" height="1.05"/>
<rect x="7" y="5" fill="#FF0307" width="1.05" height="1.05"/>
<rect x="20" y="5" fill="#FF0307" width="1.05" height="1.05"/>
<rect x="24" y="5" fill="#FF0307" width="1.05" height="1.05"/>
<rect x="4" y="5" fill="#41AF46" width="1.05" height="1.05"/>
<rect x="15" y="5" fill="#41AF46" width="1.05" height="1.05"/>
<rect x="21" y="5" fill="#FF0307" width="1.05" height="1.05"/>
<rect x="13" y="5" fill="#41AF46" width="1.05" height="1.05"/>
<rect x="22" y="5" fill="#FF0307" width="1.05" height="1.05"/>
<rect x="6" y="5" fill="#6E1A15" width="1.05" height="1.05"/>
<rect x="17" y="5" fill="#41AF46" width="1.05" height="1.05"/>
<rect x="3" y="5" fill="#41AF46" width="1.05" height="1.05"/>
<rect x="12" y="5" fill="#FFFFFF" width="1.05" height="1.05"/>
<rect x="23" y="5" fill="#FF0307" width="1.05" height="1.05"/>
<rect x="19" y="5" fill="#FF0307" width="1.05" height="1.05"/>
<rect x="11" y="5" fill="#41AF46" width="1.05" height="1.05"/>
<rect x="9" y="5" fill="#FF0307" width="1.05" height="1.05"/>
<rect x="5" y="5" fill="#41AF46" width="1.05" height="1.05"/>
<rect x="14" y="5" fill="#41AF46" width="1.05" height="1.05"/>
<rect x="16" y="5" fill="#41AF46" width="1.05" height="1.05"/>
<rect x="10" y="5" fill="#41AF46" width="1.05" height="1.05"/>
<rect x="18" y="5" fill="#41AF46" width="1.05" height="1.05"/>
<rect x="8" y="5" fill="#FF0307" width="1.05" height="1.05"/>
<rect x="0" y="14" fill="#41AF46" width="1.05" height="1.05"/>
<rect x="7" y="14" fill="#E8E8E8" width="1.05" height="1.05"/>
<rect x="20" y="14" fill="#FFFFFF" width="1.05" height="1.05"/>
<rect x="27" y="14" fill="#41AF46" width="1.05" height="1.05"/>
<rect x="1" y="14" fill="#41AF46" width="1.05" height="1.05"/>
<rect x="24" y="14" fill="#41AF46" width="1.05" height="1.05"/>
<rect x="4" y="14" fill="#41AF46" width="1.05" height="1.05"/>
<rect x="15" y="14" fill="#343F35" width="1.05" height="1.05"/>
<rect x="21" y="14" fill="#FFFFFF" width="1.05" height="1.05"/>
<rect x="13" y="14" fill="#E8E8E8" width="1.05" height="1.05"/>
<rect x="22" y="14" fill="#FFFFFF" width="1.05" height="1.05"/>
<rect x="6" y="14" fill="#C1C1C1" width="1.05" height="1.05"/>
<rect x="25" y="14" fill="#41AF46" width="1.05" height="1.05"/>
<rect x="17" y="14" fill="#E8E8E8" width="1.05" height="1.05"/>
<rect x="3" y="14" fill="#41AF46" width="1.05" height="1.05"/>
<rect x="12" y="14" fill="#E8E8E8" width="1.05" height="1.05"/>
<rect x="2" y="14" fill="#41AF46" width="1.05" height="1.05"/>
<rect x="23" y="14" fill="#41AF46" width="1.05" height="1.05"/>
<rect x="19" y="14" fill="#E8E8E8" width="1.05" height="1.05"/>
<rect x="11" y="14" fill="#E8E8E8" width="1.05" height="1.05"/>
<rect x="9" y="14" fill="#E8E8E8" width="1.05" height="1.05"/>
<rect x="5" y="14" fill="#C1C1C1" width="1.05" height="1.05"/>
<rect x="14" y="14" fill="#FFFFFF" width="1.05" height="1.05"/>
<rect x="26" y="14" fill="#41AF46" width="1.05" height="1.05"/>
<rect x="16" y="14" fill="#C1C1C1" width="1.05" height="1.05"/>
<rect x="10" y="14" fill="#E8E8E8" width="1.05" height="1.05"/>
<rect x="18" y="14" fill="#E8E8E8" width="1.05" height="1.05"/>
<rect x="8" y="14" fill="#E8E8E8" width="1.05" height="1.05"/>
<rect x="15" y="26" fill="#E8E8E8" width="1.05" height="1.05"/>
<rect x="13" y="26" fill="#C1C1C1" width="1.05" height="1.05"/>
<rect x="17" y="26" fill="#343F35" width="1.05" height="1.05"/>
<rect x="12" y="26" fill="#E8E8E8" width="1.05" height="1.05"/>
<rect x="19" y="26" fill="#343F35" width="1.05" height="1.05"/>
<rect x="11" y="26" fill="#C1C1C1" width="1.05" height="1.05"/>
<rect x="9" y="26" fill="#343F35" width="1.05" height="1.05"/>
<rect x="14" y="26" fill="#C1C1C1" width="1.05" height="1.05"/>
<rect x="16" y="26" fill="#E8E8E8" width="1.05" height="1.05"/>
<rect x="10" y="26" fill="#343F35" width="1.05" height="1.05"/>
<rect x="18" y="26" fill="#343F35" width="1.05" height="1.05"/>
<rect x="8" y="26" fill="#343F35" width="1.05" height="1.05"/>
<rect x="0" y="16" fill="#343F35" width="1.05" height="1.05"/>
<rect x="7" y="16" fill="#E8E8E8" width="1.05" height="1.05"/>
<rect x="20" y="16" fill="#FFFFFF" width="1.05" height="1.05"/>
<rect x="27" y="16" fill="#343F35" width="1.05" height="1.05"/>
<rect x="1" y="16" fill="#41AF46" width="1.05" height="1.05"/>
<rect x="24" y="16" fill="#0068FD" width="1.05" height="1.05"/>
<rect x="4" y="16" fill="#C1C1C1" width="1.05" height="1.05"/>
<rect x="15" y="16" fill="#C1C1C1" width="1.05" height="1.05"/>
<rect x="21" y="16" fill="#FFFFFF" width="1.05" height="1.05"/>
<rect x="13" y="16" fill="#FFFFFF" width="1.05" height="1.05"/>
<rect x="22" y="16" fill="#FFFFFF" width="1.05" height="1.05"/>
<rect x="6" y="16" fill="#E8E8E8" width="1.05" height="1.05"/>
<rect x="25" y="16" fill="#0068FD" width="1.05" height="1.05"/>
<rect x="17" y="16" fill="#E8E8E8" width="1.05" height="1.05"/>
<rect x="3" y="16" fill="#41AF46" width="1.05" height="1.05"/>
<rect x="12" y="16" fill="#FFFFFF" width="1.05" height="1.05"/>
<rect x="2" y="16" fill="#41AF46" width="1.05" height="1.05"/>
<rect x="23" y="16" fill="#41AF46" width="1.05" height="1.05"/>
<rect x="19" y="16" fill="#E8E8E8" width="1.05" height="1.05"/>
<rect x="11" y="16" fill="#FFFFFF" width="1.05" height="1.05"/>
<rect x="9" y="16" fill="#E8E8E8" width="1.05" height="1.05"/>
<rect x="5" y="16" fill="#C1C1C1" width="1.05" height="1.05"/>
<rect x="14" y="16" fill="#343F35" width="1.05" height="1.05"/>
<rect x="26" y="16" fill="#0068FD" width="1.05" height="1.05"/>
<rect x="16" y="16" fill="#E8E8E8" width="1.05" height="1.05"/>
<rect x="10" y="16" fill="#C1C1C1" width="1.05" height="1.05"/>
<rect x="18" y="16" fill="#E8E8E8" width="1.05" height="1.05"/>
<rect x="8" y="16" fill="#E8E8E8" width="1.05" height="1.05"/>
<rect x="7" y="10" fill="#41AF46" width="1.05" height="1.05"/>
<rect x="20" y="10" fill="#FF9100" width="1.05" height="1.05"/>
<rect x="1" y="10" fill="#41AF46" width="1.05" height="1.05"/>
<rect x="24" y="10" fill="#FFF700" width="1.05" height="1.05"/>
<rect x="4" y="10" fill="#41AF46" width="1.05" height="1.05"/>
<rect x="15" y="10" fill="#E8E8E8" width="1.05" height="1.05"/>
<rect x="21" y="10" fill="#FFF700" width="1.05" height="1.05"/>
<rect x="13" y="10" fill="#E8E8E8" width="1.05" height="1.05"/>
<rect x="22" y="10" fill="#FFF700" width="1.05" height="1.05"/>
<rect x="6" y="10" fill="#41AF46" width="1.05" height="1.05"/>
<rect x="25" y="10" fill="#FFF700" width="1.05" height="1.05"/>
<rect x="17" y="10" fill="#FFFFFF" width="1.05" height="1.05"/>
<rect x="3" y="10" fill="#41AF46" width="1.05" height="1.05"/>
<rect x="12" y="10" fill="#E8E8E8" width="1.05" height="1.05"/>
<rect x="2" y="10" fill="#41AF46" width="1.05" height="1.05"/>
<rect x="23" y="10" fill="#FFF700" width="1.05" height="1.05"/>
<rect x="19" y="10" fill="#FFFFFF" width="1.05" height="1.05"/>
<rect x="11" y="10" fill="#E8E8E8" width="1.05" height="1.05"/>
<rect x="9" y="10" fill="#E8E8E8" width="1.05" height="1.05"/>
<rect x="5" y="10" fill="#41AF46" width="1.05" height="1.05"/>
<rect x="14" y="10" fill="#E8E8E8" width="1.05" height="1.05"/>
<rect x="26" y="10" fill="#FFF700" width="1.05" height="1.05"/>
<rect x="16" y="10" fill="#E8E8E8" width="1.05" height="1.05"/>
<rect x="10" y="10" fill="#E8E8E8" width="1.05" height="1.05"/>
<rect x="18" y="10" fill="#FFFFFF" width="1.05" height="1.05"/>
<rect x="8" y="10" fill="#C1C1C1" width="1.05" height="1.05"/>
<rect x="7" y="18" fill="#C1C1C1" width="1.05" height="1.05"/>
<rect x="20" y="18" fill="#E8E8E8" width="1.05" height="1.05"/>
<rect x="1" y="18" fill="#41AF46" width="1.05" height="1.05"/>
<rect x="24" y="18" fill="#0068FD" width="1.05" height="1.05"/>
<rect x="4" y="18" fill="#41AF46" width="1.05" height="1.05"/>
<rect x="15" y="18" fill="#C1C1C1" width="1.05" height="1.05"/>
<rect x="21" y="18" fill="#FFFFFF" width="1.05" height="1.05"/>
<rect x="13" y="18" fill="#C1C1C1" width="1.05" height="1.05"/>
<rect x="22" y="18" fill="#FFFFFF" width="1.05" height="1.05"/>
<rect x="6" y="18" fill="#343F35" width="1.05" height="1.05"/>
<rect x="25" y="18" fill="#0068FD" width="1.05" height="1.05"/>
<rect x="17" y="18" fill="#E8E8E8" width="1.05" height="1.05"/>
<rect x="3" y="18" fill="#41AF46" width="1.05" height="1.05"/>
<rect x="12" y="18" fill="#41AF46" width="1.05" height="1.05"/>
<rect x="2" y="18" fill="#41AF46" width="1.05" height="1.05"/>
<rect x="23" y="18" fill="#0068FD" width="1.05" height="1.05"/>
<rect x="19" y="18" fill="#E8E8E8" width="1.05" height="1.05"/>
<rect x="11" y="18" fill="#41AF46" width="1.05" height="1.05"/>
<rect x="9" y="18" fill="#343F35" width="1.05" height="1.05"/>
<rect x="5" y="18" fill="#C1C1C1" width="1.05" height="1.05"/>
<rect x="14" y="18" fill="#C1C1C1" width="1.05" height="1.05"/>
<rect x="26" y="18" fill="#0068FD" width="1.05" height="1.05"/>
<rect x="16" y="18" fill="#E8E8E8" width="1.05" height="1.05"/>
<rect x="10" y="18" fill="#343F35" width="1.05" height="1.05"/>
<rect x="18" y="18" fill="#FFFFFF" width="1.05" height="1.05"/>
<rect x="8" y="18" fill="#C1C1C1" width="1.05" height="1.05"/>
<rect x="7" y="8" fill="#41AF46" width="1.05" height="1.05"/>
<rect x="20" y="8" fill="#FF9100" width="1.05" height="1.05"/>
<rect x="1" y="8" fill="#41AF46" width="1.05" height="1.05"/>
<rect x="24" y="8" fill="#FF9100" width="1.05" height="1.05"/>
<rect x="4" y="8" fill="#41AF46" width="1.05" height="1.05"/>
<rect x="15" y="8" fill="#FFFFFF" width="1.05" height="1.05"/>
<rect x="21" y="8" fill="#FF9100" width="1.05" height="1.05"/>
<rect x="13" y="8" fill="#FFFFFF" width="1.05" height="1.05"/>
<rect x="22" y="8" fill="#FF9100" width="1.05" height="1.05"/>
<rect x="6" y="8" fill="#41AF46" width="1.05" height="1.05"/>
<rect x="25" y="8" fill="#FF9100" width="1.05" height="1.05"/>
<rect x="17" y="8" fill="#FF0307" width="1.05" height="1.05"/>
<rect x="3" y="8" fill="#41AF46" width="1.05" height="1.05"/>
<rect x="12" y="8" fill="#E8E8E8" width="1.05" height="1.05"/>
<rect x="2" y="8" fill="#41AF46" width="1.05" height="1.05"/>
<rect x="23" y="8" fill="#FF9100" width="1.05" height="1.05"/>
<rect x="19" y="8" fill="#FF9100" width="1.05" height="1.05"/>
<rect x="11" y="8" fill="#C1C1C1" width="1.05" height="1.05"/>
<rect x="9" y="8" fill="#41AF46" width="1.05" height="1.05"/>
<rect x="5" y="8" fill="#41AF46" width="1.05" height="1.05"/>
<rect x="14" y="8" fill="#FFFFFF" width="1.05" height="1.05"/>
<rect x="26" y="8" fill="#FF9100" width="1.05" height="1.05"/>
<rect x="16" y="8" fill="#FFFFFF" width="1.05" height="1.05"/>
<rect x="10" y="8" fill="#6EC872" width="1.05" height="1.05"/>
<rect x="18" y="8" fill="#FF0307" width="1.05" height="1.05"/>
<rect x="8" y="8" fill="#41AF46" width="1.05" height="1.05"/>
</g>
</svg>
